<svg width="40" height="40" viewBox="0 0 40 40" fill="none" xmlns="http://www.w3.org/2000/svg">
  <circle cx="20" cy="20" r="20" fill="#8BADA4"/>
  <path d="M28 17.7V27C28 27.5304 27.7893 28.0391 27.4142 28.4142C27.0391 28.7893 26.5304 29 26 29H14C13.4696 29 12.9609 28.7893 12.5858 28.4142C12.2107 28.0391 12 27.5304 12 27V17.7C12 17.2976 12.1196 16.9055 12.3432 16.57L18.3432 10.57C18.5389 10.3747 18.7646 10.2198 19.0128 10.1145C19.2609 10.0092 19.5277 9.95557 19.7971 9.95636C20.0665 9.95715 20.3328 10.0123 20.5802 10.119C20.8276 10.2257 21.0522 10.3818 21.2465 10.578L27.6535 16.985C27.8717 17.2033 28.0012 17.4447 28.0392 17.7H28Z" stroke="white" stroke-width="2" stroke-linecap="round" stroke-linejoin="round"/>
  <path d="M20 29V22" stroke="white" stroke-width="2" stroke-linecap="round" stroke-linejoin="round"/>
  <path d="M16 22H24" stroke="white" stroke-width="2" stroke-linecap="round" stroke-linejoin="round"/>
</svg> 